<?xml version="1.0" standalone="no"?>
<!DOCTYPE svg PUBLIC "-//W3C//DTD SVG 20010904//EN"
 "http://www.w3.org/TR/2001/REC-SVG-20010904/DTD/svg10.dtd">
<svg version="1.0" xmlns="http://www.w3.org/2000/svg"
 width="128.000000pt" height="128.000000pt" viewBox="0 0 128.000000 128.000000"
 preserveAspectRatio="xMidYMid meet">
<metadata>
Created by potrace 1.11, written by Peter Selinger 2001-2013
</metadata>
<g transform="translate(0.000000,128.000000) scale(0.100000,-0.100000)"
fill="#000000" stroke="none">
<path d="M496 1215 c-76 -19 -168 -66 -231 -118 -53 -43 -135 -137 -135 -154
0 -6 -8 -21 -18 -34 -17 -23 -39 -79 -47 -118 -11 -58 -19 -118 -16 -130 1 -8
-2 -10 -11 -6 -10 6 -11 5 0 -6 15 -16 16 -33 0 -23 -7 5 -8 3 -2 -7 11 -18
14 -34 17 -81 1 -21 5 -38 8 -38 4 0 9 -11 11 -25 4 -16 1 -22 -6 -18 -6 4 -6
0 1 -9 7 -8 9 -19 5 -23 -4 -5 -1 -5 5 -1 12 7 16 -6 16 -56 0 -10 4 -15 8
-12 5 3 6 11 2 17 -4 7 1 6 11 -2 12 -10 13 -16 6 -21 -8 -5 -6 -9 6 -14 9 -3
14 -9 11 -12 -3 -4 7 -17 24 -31 24 -21 27 -28 18 -40 -7 -8 -8 -13 -3 -12 21
4 28 -2 14 -12 -12 -8 -10 -9 9 -4 18 5 22 4 16 -6 -6 -9 -3 -11 10 -5 15 5
16 4 5 -9 -10 -13 -9 -15 9 -15 14 0 20 -4 15 -12 -5 -8 -2 -9 9 -5 9 3 19 1
23 -5 4 -6 3 -8 -4 -4 -6 3 -13 3 -16 -2 -3 -5 0 -9 7 -10 42 -3 79 -23 73
-37 -7 -19 4 -26 25 -14 15 7 19 6 19 -5 0 -9 7 -12 20 -9 11 3 20 1 20 -5 0
-5 7 -13 16 -16 8 -3 13 -2 10 2 -3 5 1 9 8 9 9 0 12 -7 9 -16 -5 -13 -3 -14
8 -4 7 7 18 13 23 13 6 0 4 -5 -4 -11 -12 -9 -11 -10 8 -6 16 4 22 0 23 -11 0
-14 2 -13 8 3 8 19 8 19 19 0 10 -18 11 -18 12 -2 0 9 5 17 11 17 5 0 7 -5 4
-10 -3 -6 -1 -10 5 -10 6 0 8 -5 4 -12 -4 -7 -3 -8 5 -4 6 4 8 13 4 19 -3 7 3
4 14 -6 16 -14 20 -14 20 -2 0 8 -5 11 -11 8 -6 -3 -5 0 2 8 11 12 14 12 22
-1 7 -11 12 -12 21 -3 12 12 42 6 34 -6 -5 -10 26 -7 43 3 6 4 16 4 22 1 6 -3
7 1 4 10 -7 17 16 17 28 0 5 -6 8 -3 8 7 0 9 5 20 12 24 6 4 8 3 5 -3 -4 -6 4
-10 18 -10 14 0 25 4 25 9 0 5 -4 7 -9 3 -5 -3 -12 -1 -15 4 -4 5 7 7 24 5 18
-3 30 -1 30 6 0 6 -6 8 -12 4 -7 -4 -9 -3 -5 1 12 14 38 15 30 2 -4 -7 1 -6
10 2 9 7 14 18 10 25 -4 6 0 5 9 -2 13 -10 18 -10 24 -1 4 8 3 9 -4 5 -7 -4
-12 -2 -12 5 0 7 10 9 25 7 13 -3 22 -2 20 3 -3 4 -2 9 2 12 5 2 1 2 -7 0 -8
-2 -1 8 15 21 17 14 35 23 42 21 8 -2 10 2 6 12 -4 11 -2 14 5 9 7 -4 12 -1
12 9 0 10 5 13 12 9 8 -5 9 -2 5 10 -4 10 -3 15 3 11 6 -3 10 1 10 9 0 8 4 18
10 21 6 3 7 -1 4 -12 -5 -17 -5 -17 6 0 6 9 8 22 4 29 -4 6 -3 8 4 4 6 -3 13
-2 17 4 3 5 1 10 -5 10 -7 0 -6 5 2 14 7 8 16 12 20 10 3 -2 4 5 1 16 -4 14 0
20 11 20 9 0 16 5 16 11 0 5 -4 8 -9 4 -5 -3 -3 8 5 25 9 17 20 27 26 24 7 -4
8 -2 4 5 -4 6 -11 9 -16 6 -4 -3 -6 4 -3 15 3 11 9 20 14 20 5 0 6 7 3 15 -4
8 0 23 7 32 12 14 12 16 -1 8 -12 -7 -13 -6 -4 6 11 15 13 144 1 155 -4 4 -1
14 6 22 9 13 9 14 0 8 -9 -5 -13 1 -13 18 0 35 1 32 -15 63 -8 14 -12 30 -9
35 3 4 0 8 -5 8 -6 0 -11 6 -11 13 0 34 -152 227 -179 227 -4 0 -16 9 -26 20
-10 11 -20 18 -23 15 -3 -2 -17 4 -31 14 -83 59 -291 87 -415 56z m264 -1149
c0 -2 -6 -9 -14 -15 -11 -9 -16 -9 -22 0 -4 7 -3 9 4 5 6 -3 13 -2 17 4 6 10
15 14 15 6z"/>
<path d="M150 286 c0 -2 8 -10 18 -17 15 -13 16 -12 3 4 -13 16 -21 21 -21 13z"/>
<path d="M1025 189 c-4 -6 -4 -13 -1 -16 3 -4 6 -1 6 6 0 7 5 9 12 5 7 -4 8
-3 4 4 -9 15 -13 15 -21 1z"/>
<path d="M310 120 c0 -5 5 -10 10 -10 6 0 10 5 10 10 0 6 -4 10 -10 10 -5 0
-10 -4 -10 -10z"/>
<path d="M675 41 c-3 -5 -2 -12 3 -15 5 -3 9 1 9 9 0 17 -3 19 -12 6z"/>
</g>
</svg>
